<svg xmlns="http://www.w3.org/2000/svg" xmlns:xlink="http://www.w3.org/1999/xlink" version="1.1" width="256" height="256" viewBox="0 0 256 256" xml:space="preserve">

<defs>
</defs>
<g style="stroke: none; stroke-width: 0; stroke-dasharray: none; stroke-linecap: butt; stroke-linejoin: miter; stroke-miterlimit: 10; fill: none; fill-rule: nonzero; opacity: 1;" transform="translate(1.4065934065934016 1.4065934065934016) scale(2.81 2.81)" >
	<path d="M 20.34 64.34 H 69.66 C 80.341 64.34 89 55.681 89 45 v 0 c 0 -10.681 -8.659 -19.34 -19.34 -19.34 H 20.34 C 9.659 25.66 1 34.319 1 45 v 0 C 1 55.681 9.659 64.34 20.34 64.34 z" style="stroke: none; stroke-width: 1; stroke-dasharray: none; stroke-linecap: butt; stroke-linejoin: miter; stroke-miterlimit: 10; fill: rgb(224,105,105); fill-rule: nonzero; opacity: 1;" transform=" matrix(1 0 0 1 0 0) " stroke-linecap="round" />
	<path d="M 69.66 65.34 H 20.34 C 9.125 65.34 0 56.216 0 45 s 9.125 -20.34 20.34 -20.34 h 49.32 C 80.876 24.66 90 33.784 90 45 S 80.876 65.34 69.66 65.34 z M 20.34 26.66 C 10.228 26.66 2 34.887 2 45 c 0 10.112 8.228 18.34 18.34 18.34 h 49.32 C 79.772 63.34 88 55.112 88 45 c 0 -10.113 -8.228 -18.34 -18.34 -18.34 H 20.34 z" style="stroke: none; stroke-width: 1; stroke-dasharray: none; stroke-linecap: butt; stroke-linejoin: miter; stroke-miterlimit: 10; fill: rgb(0,0,0); fill-rule: nonzero; opacity: 1;" transform=" matrix(1 0 0 1 0 0) " stroke-linecap="round" />
	<path d="M 21.336 57.5 L 21.336 57.5 c -6.904 0 -12.5 -5.596 -12.5 -12.5 v 0 c 0 -6.904 5.596 -12.5 12.5 -12.5 h 0 c 6.904 0 12.5 5.596 12.5 12.5 v 0 C 33.836 51.904 28.239 57.5 21.336 57.5 z" style="stroke: none; stroke-width: 1; stroke-dasharray: none; stroke-linecap: butt; stroke-linejoin: miter; stroke-miterlimit: 10; fill: rgb(244,244,244); fill-rule: nonzero; opacity: 1;" transform=" matrix(1 0 0 1 0 0) " stroke-linecap="round" />
	<path d="M 21.336 58.5 c -7.444 0 -13.5 -6.056 -13.5 -13.5 c 0 -7.444 6.056 -13.5 13.5 -13.5 s 13.5 6.056 13.5 13.5 C 34.836 52.444 28.78 58.5 21.336 58.5 z M 21.336 33.5 c -6.341 0 -11.5 5.159 -11.5 11.5 c 0 6.341 5.159 11.5 11.5 11.5 s 11.5 -5.159 11.5 -11.5 C 32.836 38.659 27.677 33.5 21.336 33.5 z" style="stroke: none; stroke-width: 1; stroke-dasharray: none; stroke-linecap: butt; stroke-linejoin: miter; stroke-miterlimit: 10; fill: rgb(0,0,0); fill-rule: nonzero; opacity: 1;" transform=" matrix(1 0 0 1 0 0) " stroke-linecap="round" />
	<path d="M 58.906 54.5 c -0.553 0 -1 -0.447 -1 -1 v -17 c 0 -0.552 0.447 -1 1 -1 h 7.536 c 0.553 0 1 0.448 1 1 s -0.447 1 -1 1 h -6.536 v 16 C 59.906 54.053 59.459 54.5 58.906 54.5 z" style="stroke: none; stroke-width: 1; stroke-dasharray: none; stroke-linecap: butt; stroke-linejoin: miter; stroke-miterlimit: 10; fill: rgb(0,0,0); fill-rule: nonzero; opacity: 1;" transform=" matrix(1 0 0 1 0 0) " stroke-linecap="round" />
	<path d="M 63.836 46 h -4.93 c -0.553 0 -1 -0.448 -1 -1 s 0.447 -1 1 -1 h 4.93 c 0.553 0 1 0.448 1 1 S 64.389 46 63.836 46 z" style="stroke: none; stroke-width: 1; stroke-dasharray: none; stroke-linecap: butt; stroke-linejoin: miter; stroke-miterlimit: 10; fill: rgb(0,0,0); fill-rule: nonzero; opacity: 1;" transform=" matrix(1 0 0 1 0 0) " stroke-linecap="round" />
	<path d="M 47.693 54.5 h -3.221 c -2.573 0 -4.666 -2.093 -4.666 -4.665 v -9.669 c 0 -2.573 2.093 -4.666 4.666 -4.666 h 3.221 c 2.573 0 4.666 2.093 4.666 4.666 v 9.669 C 52.359 52.407 50.267 54.5 47.693 54.5 z M 44.473 37.5 c -1.47 0 -2.666 1.196 -2.666 2.666 v 9.669 c 0 1.47 1.196 2.665 2.666 2.665 h 3.221 c 1.47 0 2.666 -1.195 2.666 -2.665 v -9.669 c 0 -1.47 -1.196 -2.666 -2.666 -2.666 H 44.473 z" style="stroke: none; stroke-width: 1; stroke-dasharray: none; stroke-linecap: butt; stroke-linejoin: miter; stroke-miterlimit: 10; fill: rgb(0,0,0); fill-rule: nonzero; opacity: 1;" transform=" matrix(1 0 0 1 0 0) " stroke-linecap="round" />
	<path d="M 71.656 54.5 c -0.553 0 -1 -0.447 -1 -1 v -17 c 0 -0.552 0.447 -1 1 -1 h 7.536 c 0.553 0 1 0.448 1 1 s -0.447 1 -1 1 h -6.536 v 16 C 72.656 54.053 72.209 54.5 71.656 54.5 z" style="stroke: none; stroke-width: 1; stroke-dasharray: none; stroke-linecap: butt; stroke-linejoin: miter; stroke-miterlimit: 10; fill: rgb(0,0,0); fill-rule: nonzero; opacity: 1;" transform=" matrix(1 0 0 1 0 0) " stroke-linecap="round" />
	<path d="M 76.586 46 h -4.93 c -0.553 0 -1 -0.448 -1 -1 s 0.447 -1 1 -1 h 4.93 c 0.553 0 1 0.448 1 1 S 77.139 46 76.586 46 z" style="stroke: none; stroke-width: 1; stroke-dasharray: none; stroke-linecap: butt; stroke-linejoin: miter; stroke-miterlimit: 10; fill: rgb(0,0,0); fill-rule: nonzero; opacity: 1;" transform=" matrix(1 0 0 1 0 0) " stroke-linecap="round" />
</g>
</svg>