<?xml version="1.0" encoding="iso-8859-1"?>
<!-- Generator: Adobe Illustrator 19.0.0, SVG Export Plug-In . SVG Version: 6.00 Build 0)  -->
<svg xmlns="http://www.w3.org/2000/svg" xmlns:xlink="http://www.w3.org/1999/xlink" version="1.1" id="Capa_1" x="0px" y="0px" viewBox="0 0 512 512" style="enable-background:new 0 0 512 512;" xml:space="preserve">
<circle style="fill:#626C7F;" cx="255.993" cy="256.004" r="230.966"/>
<path style="fill:#555E6D;" d="M94.722,256.001c0-115.714,85.095-211.548,196.121-228.349  C150.109,6.356,25.034,115.382,25.034,256.001c0,140.594,125.055,249.647,265.807,228.349  C179.817,467.549,94.722,371.714,94.722,256.001z"/>
<path style="fill:#6EDCF9;" d="M256,7.541c-137.024,0-248.5,111.457-248.5,248.457c0,136.973,111.493,248.46,248.5,248.46  c137.025,0,248.501-111.459,248.501-248.46C504.501,119.249,393.217,7.541,256,7.541z M402.706,421.768v0.002  C265.554,547.787,34.497,448.836,34.497,256.001c0,0-5.132-139.32,128.564-200.996c88.517-41.13,193.661-19.121,258.737,54.314  v0.002c60.115,67.84,55.703,146.68,55.703,146.68C477.502,319.269,450.53,379.403,402.706,421.768z"/>
<path style="fill:#37CAE2;" d="M34.497,256.001c0,0,0-0.02,0-0.017C34.636,129.242,134.16,15.306,269.656,7.923  C126.979,0.129,7.499,114.068,7.499,255.999c0,136.973,111.493,248.46,248.5,248.46c4.589,0,9.146-0.135,13.675-0.382  C138.177,496.919,34.497,387.214,34.497,256.001z"/>
<g>
	<path style="fill:#D37044;" d="M200.531,404.055c-6.902,0-12.499-5.597-12.499-12.499V279.568c0-6.903,5.596-12.499,12.499-12.499   s12.499,5.595,12.499,12.499v111.988C213.03,398.458,207.435,404.055,200.531,404.055z"/>
	<path style="fill:#D37044;" d="M328.519,391.556c0,6.901,5.595,12.499,12.499,12.499c6.901,0,12.499-5.597,12.499-12.499V279.367   h-24.997V391.556z"/>
</g>
<g>
	<path style="fill:#C16B3D;" d="M200.531,391.556V279.568c0-4.625,2.518-8.651,6.249-10.813c-1.84-1.065-3.97-1.686-6.249-1.686   c-6.902,0-12.499,5.595-12.499,12.499v111.988c0,6.901,5.596,12.499,12.499,12.499c2.28,0,4.41-0.62,6.249-1.686   C203.049,400.207,200.531,396.179,200.531,391.556z"/>
	<path style="fill:#C16B3D;" d="M341.018,391.556V279.367h-12.499v112.189c0,9.613,10.432,15.631,18.748,10.813   C343.534,400.207,341.018,396.179,341.018,391.556z"/>
</g>
<path style="fill:#E3E5E5;" d="M350.242,107.574c-27.412,2.163-48.886,31.252-48.886,66.222v103.571c0,1.933,1.567,3.5,3.5,3.5  h45.661c1.933,0,3.5-1.567,3.5-3.5V111.063C354.016,109.039,352.3,107.42,350.242,107.574z"/>
<path style="fill:#D6D6D6;" d="M327.186,277.367V173.796c0-24.782,10.791-46.598,26.83-57.982c0-4.847,0.29-6.013-1.125-7.32  c-0.716-0.662-1.675-0.992-2.651-0.919c-27.412,2.163-48.886,31.252-48.886,66.222v103.571c0,1.933,1.567,3.5,3.5,3.5h25.83  C328.753,280.867,327.186,279.299,327.186,277.367z"/>
<path d="M256,0.042C114.841,0.042,0,114.863,0,255.999c0,141.255,114.55,255.96,256,255.96c141.159,0,256-114.823,256-255.96  C512,114.723,397.279,0.042,256,0.042z M256,496.96c-132.926,0-241.001-107.962-241.001-240.961  C14.998,123.134,123.111,15.04,256,15.04c132.914,0,241.002,107.949,241.002,240.957C497.002,388.865,388.889,496.96,256,496.96z"/>
<path d="M459.157,150.423C320.654-111.809-91.559,86.014,53.145,362.149C190.284,623.108,603.672,427.609,459.157,150.423z   M66.161,354.675C-33.225,164.397,177.525-31.705,359.097,68.557l-0.013-0.006c59.515,33.478,97.217,89.35,107.812,151.081  C508.654,463.177,177.465,567.108,66.161,354.675z"/>
<path d="M242.579,100.851c-4.142,0-7.499,3.357-7.499,7.499v76.045c0,12.231-9.951,22.182-22.182,22.182h-4.867v-98.226  c0-4.143-3.358-7.499-7.499-7.499s-7.499,3.357-7.499,7.499v98.226h-4.868c-12.231,0-22.182-9.95-22.182-22.182V108.35  c0-4.143-3.358-7.499-7.499-7.499s-7.499,3.357-7.499,7.499v76.045c0,20.501,16.679,37.18,37.18,37.18h4.868v39.468  c-7.319,2.974-12.499,10.151-12.499,18.526v111.988c0,11.027,8.971,19.998,19.998,19.998s19.998-8.971,19.998-19.998V369.06  c0-4.143-3.358-7.499-7.499-7.499s-7.499,3.357-7.499,7.499v22.498c0,2.757-2.243,4.999-4.999,4.999s-4.999-2.243-4.999-4.999  V279.569c0-2.757,2.243-4.999,4.999-4.999s4.999,2.243,4.999,4.999v54.494c0,4.143,3.358,7.499,7.499,7.499s7.499-3.357,7.499-7.499  v-54.494c0-8.374-5.179-15.551-12.499-18.526v-39.468h4.867c20.501,0,37.179-16.679,37.179-37.18V108.35  C250.077,104.207,246.72,100.851,242.579,100.851z"/>
<path d="M353.516,100.446c-32.621,0-59.16,32.905-59.16,73.349v40.279c0,4.143,3.357,7.499,7.499,7.499s7.499-3.357,7.499-7.499  v-40.279c0-28.798,15.871-52.79,36.662-57.51v156.582c-13.742,0-22.966,0-36.662,0V249.07c0-4.143-3.357-7.499-7.499-7.499  s-7.499,3.357-7.499,7.499v31.296c0,4.143,3.357,7.499,7.499,7.499h19.164v103.69c0,11.027,8.971,19.998,19.998,19.998  c11.027,0,19.998-8.971,19.998-19.998c0-9.767,0-272.261,0-283.612C361.016,103.803,357.659,100.446,353.516,100.446z   M346.017,391.556c0,2.757-2.243,4.999-4.999,4.999c-2.757,0-4.999-2.243-4.999-4.999v-103.69h9.999V391.556z"/>
<g>
</g>
<g>
</g>
<g>
</g>
<g>
</g>
<g>
</g>
<g>
</g>
<g>
</g>
<g>
</g>
<g>
</g>
<g>
</g>
<g>
</g>
<g>
</g>
<g>
</g>
<g>
</g>
<g>
</g>
</svg>
